<svg width="19" height="14" viewBox="0 0 19 14" fill="none" xmlns="http://www.w3.org/2000/svg">
<path d="M4.65625 3.25C3.3125 4.5 2.40625 6 2 7C2.40625 8 3.3125 9.5 4.65625 10.75C6 12 7.78125 13 10 13C12.1875 13 13.9688 12 15.3125 10.75C16.6562 9.5 17.5625 8 18 7C17.5625 6 16.6562 4.5 15.3125 3.25C13.9688 2 12.1875 1 10 1C7.78125 1 6 2 4.65625 3.25ZM10 0C12.5 0 14.5312 1.15625 16 2.53125C17.4688 3.875 18.4375 5.5 18.9062 6.625C19 6.875 19 7.15625 18.9062 7.40625C18.4375 8.5 17.4688 10.125 16 11.5C14.5312 12.875 12.5 14 10 14C7.46875 14 5.4375 12.875 3.96875 11.5C2.5 10.125 1.53125 8.5 1.0625 7.40625C0.96875 7.15625 0.96875 6.875 1.0625 6.625C1.53125 5.5 2.5 3.875 3.96875 2.53125C5.4375 1.15625 7.46875 0 10 0ZM7 7C7 8.09375 7.5625 9.0625 8.5 9.625C9.40625 10.1562 10.5625 10.1562 11.5 9.625C12.4062 9.0625 13 8.09375 13 7C13 5.9375 12.4062 4.96875 11.5 4.40625C10.5625 3.875 9.40625 3.875 8.5 4.40625C7.5625 4.96875 7 5.9375 7 7ZM14 7C14 8.4375 13.2188 9.75 12 10.4688C10.75 11.1875 9.21875 11.1875 8 10.4688C6.75 9.75 6 8.4375 6 7C6 5.59375 6.75 4.28125 8 3.5625C9.21875 2.84375 10.75 2.84375 12 3.5625C13.2188 4.28125 14 5.59375 14 7Z" fill="#475467"/>
</svg>
